<svg width="30" height="30" viewBox="0 0 30 30" fill="none" xmlns="http://www.w3.org/2000/svg">
<path d="M17.5 8.83755C15.6394 7.76201 13.4818 7.31448 11.3469 7.5613C9.21203 7.80811 7.21346 8.73613 5.64735 10.2078C4.08123 11.6796 3.03091 13.6167 2.65201 15.7321C2.27312 17.8475 2.58581 20.0288 3.54376 21.9526C3.72126 22.3088 3.78001 22.7151 3.67751 23.1001L3.08126 25.3263C3.0221 25.5468 3.02203 25.779 3.08108 25.9995C3.14012 26.22 3.25619 26.421 3.4176 26.5825C3.57902 26.7439 3.78009 26.8599 4.0006 26.919C4.22111 26.978 4.45328 26.978 4.67376 26.9188L6.89876 26.3226C7.2852 26.2259 7.69361 26.2735 8.04751 26.4563C9.97131 27.4143 12.1525 27.7269 14.268 27.3481C16.3834 26.9692 18.3205 25.9188 19.7922 24.3527C21.2639 22.7866 22.192 20.788 22.4388 18.6531C22.6856 16.5183 22.2381 14.3607 21.1625 12.5001" stroke="white" stroke-width="1.5" stroke-linecap="round"/>
<path d="M22.5 18.1275C22.5831 18.0926 22.6656 18.0564 22.7475 18.0187C23.2 17.8125 23.7075 17.735 24.1887 17.8637L24.7837 18.0225C25.059 18.0959 25.3488 18.0956 25.6239 18.0217C25.8991 17.9478 26.1499 17.8028 26.3514 17.6014C26.5528 17.3999 26.6978 17.1491 26.7717 16.8739C26.8456 16.5988 26.8459 16.309 26.7725 16.0337L26.6138 15.4387C26.485 14.9575 26.5638 14.45 26.77 13.9975C27.2528 12.9388 27.5018 11.7886 27.5 10.625C27.5025 9.09153 27.069 7.58895 26.25 6.2925M11.875 7.495C12.3319 6.4009 13.0226 5.42002 13.8988 4.62116C14.7749 3.8223 15.8152 3.2248 16.9467 2.87058C18.0782 2.51635 19.2735 2.41399 20.4488 2.57066C21.624 2.72733 22.7508 3.13924 23.75 3.7775" stroke="white" stroke-width="1.5" stroke-linecap="round"/>
<path d="M7.69336 20.0752C7.28092 20.0752 6.94027 20.033 6.67139 19.9487C6.40479 19.8644 6.19629 19.7459 6.0459 19.5933C5.89551 19.4383 5.78955 19.2549 5.72803 19.043C5.6665 18.8311 5.63574 18.5964 5.63574 18.3389V16.7871C5.63574 16.5251 5.66536 16.2847 5.72461 16.0659C5.78613 15.8449 5.89209 15.6535 6.04248 15.4917C6.19287 15.3299 6.40137 15.2046 6.66797 15.1157C6.93685 15.0269 7.27865 14.9824 7.69336 14.9824C8.09212 14.9824 8.41569 15.02 8.66406 15.0952C8.91471 15.1681 9.10726 15.2718 9.2417 15.4062C9.37614 15.5384 9.46842 15.6945 9.51855 15.8745C9.56868 16.0522 9.59375 16.2459 9.59375 16.4556V16.5308L8.96484 16.582V16.5068C8.96484 16.2516 8.92952 16.0545 8.85889 15.9155C8.79053 15.7743 8.66406 15.6763 8.47949 15.6216C8.2972 15.5646 8.03516 15.5361 7.69336 15.5361C7.40397 15.5361 7.15674 15.5692 6.95166 15.6353C6.74886 15.6991 6.59391 15.813 6.48682 15.9771C6.37972 16.1388 6.32617 16.3667 6.32617 16.6606V18.4448C6.32617 18.7365 6.37858 18.9598 6.4834 19.1147C6.59049 19.2697 6.74544 19.3768 6.94824 19.436C7.15332 19.493 7.40169 19.5215 7.69336 19.5215C7.9873 19.5215 8.2277 19.493 8.41455 19.436C8.6014 19.3768 8.73812 19.2697 8.82471 19.1147C8.91357 18.9598 8.95801 18.7365 8.95801 18.4448V17.9902H7.78564V17.4878H9.64844V20H9.27246L9.18701 19.1592C9.146 19.4281 9.00928 19.6479 8.77686 19.8188C8.54443 19.9897 8.18327 20.0752 7.69336 20.0752ZM11.0635 15.0576H13.0391C13.4538 15.0576 13.7865 15.1761 14.0371 15.4131C14.2878 15.6501 14.4131 16.05 14.4131 16.6128C14.4131 17.007 14.3561 17.3192 14.2422 17.5493C14.1283 17.7795 13.9676 17.9447 13.7603 18.0449C13.5529 18.1429 13.3091 18.1919 13.0288 18.1919H11.7539V20H11.0635V15.0576ZM13.0425 17.6689C13.243 17.6689 13.3911 17.6211 13.4868 17.5254C13.5825 17.4274 13.6452 17.3009 13.6748 17.146C13.7067 16.991 13.7227 16.8293 13.7227 16.6606C13.7227 16.4989 13.7101 16.3348 13.6851 16.1685C13.66 16.0021 13.6007 15.8631 13.5073 15.7515C13.4162 15.6375 13.2669 15.5806 13.0596 15.5806H11.7539V17.6689H13.0425ZM16.563 20V15.6216H15.1377V15.0576H18.6787V15.6216H17.25V20H16.563Z" fill="white"/>
</svg>
